# xmcd
#
# Track frame offsets: 
#        150
#        18127
#        29444
#        43748
#        55941
#        74782
#        88843
#        101254
#        114667
#        128925
#        139696
#        152116
#        162547
#        175087
#
# Disc length: 2491 seconds
#
# Revision: 2
# Processed by: cddbd v1.5.2PL0 Copyright (c) Steve Scherf et al.
# Submitted via: ExactAudioCopyFreeDBPlugin 1.0
#
DISCID=c209b90e
DTITLE=Various Artist - Johnny Otis and Friends [Membran Music] [box 
DTITLE=set]
DYEAR=2004
DGENRE=Rhythm and Blues
TTITLE0=Big Joe Turner - Diney Brown Blues
TTITLE1=Eddie Cleanhead Vinson - Person to Person
TTITLE2=Nyles Jones - The Welfare Blues
TTITLE3=Johnny Otis - Fanny Mae
TTITLE4=Big Daddy Rucker - Best Friend Blues
TTITLE5=Nyles Jones - DePrit and Betty
TTITLE6=Johnny Otis - Baby I Got News for You
TTITLE7=Big Joe Turner - You're Still My Baby
TTITLE8=Johnny Otis - Sherry Red
TTITLE9=Nyles Jones - Your Poodle Dog
TTITLE10=Eddie Cleanhead Vinson - Cleanhead Blues
TTITLE11=Big Daddy Rucker - You Got Me Movin'
TTITLE12=Nyles Jones - Ain't Gonna Let No Woman
TTITLE13=Johnny Otis - Linda Lu
EXTD=
EXTT0=
EXTT1=
EXTT2=
EXTT3=
EXTT4=
EXTT5=
EXTT6=
EXTT7=
EXTT8=
EXTT9=
EXTT10=
EXTT11=
EXTT12=
EXTT13=
PLAYORDER=
